<?xml version="1.0" encoding="UTF-8" standalone="no"?>
<svg
   xmlns:dc="http://purl.org/dc/elements/1.1/"
   xmlns:cc="http://creativecommons.org/ns#"
   xmlns:rdf="http://www.w3.org/1999/02/22-rdf-syntax-ns#"
   xmlns:svg="http://www.w3.org/2000/svg"
   xmlns="http://www.w3.org/2000/svg"
   xmlns:sodipodi="http://sodipodi.sourceforge.net/DTD/sodipodi-0.dtd"
   xmlns:inkscape="http://www.inkscape.org/namespaces/inkscape"
   width="512px"
   height="512px"
   viewBox="0 0 512 512"
   version="1.1"
   id="SVGRoot"
   sodipodi:docname="github.svg"
   inkscape:version="1.0.2 (e86c870879, 2021-01-15, custom)">
  <defs
     id="defs1423" />
  <sodipodi:namedview
     id="base"
     pagecolor="#ffffff"
     bordercolor="#666666"
     borderopacity="1.0"
     inkscape:pageopacity="0.0"
     inkscape:pageshadow="2"
     inkscape:zoom="0.49497475"
     inkscape:cx="266.92012"
     inkscape:cy="143.2381"
     inkscape:document-units="px"
     inkscape:current-layer="layer1"
     inkscape:document-rotation="0"
     showgrid="false"
     inkscape:window-width="1920"
     inkscape:window-height="997"
     inkscape:window-x="1272"
     inkscape:window-y="-8"
     inkscape:window-maximized="1" />
  <metadata
     id="metadata1426">
    <rdf:RDF>
      <cc:Work
         rdf:about="">
        <dc:format>image/svg+xml</dc:format>
        <dc:type
           rdf:resource="http://purl.org/dc/dcmitype/StillImage" />
        <dc:title></dc:title>
      </cc:Work>
    </rdf:RDF>
  </metadata>
  <g
     inkscape:label="Ebene 1"
     inkscape:groupmode="layer"
     id="layer1">
    <path
       style="fill:#000000;stroke-width:0.986924;fill-opacity:1"
       d="M 233.99188,507.78486 C 127.74608,497.88192 37.943584,421.9175 11.971826,319.97689 2.3278762,282.12383 1.1121437,248.92669 7.9723626,210.7665 23.215616,125.97549 82.013495,54.10657 162.65489,21.69735 190.78222,10.393174 226.20298,3.517456 256.19772,3.5392393 c 30.41183,0.022135 66.42434,7.0060217 93.67184,18.1658307 85.34878,34.95647 143.24201,109.39336 156.64775,201.41165 2.66203,18.27239 2.42593,50.97622 -0.50231,69.57828 -8.84417,56.18402 -32.06741,102.1218 -71.62331,141.67771 -39.45135,39.45134 -86.02218,63.03042 -141.18425,71.48241 -15.93457,2.44151 -43.93503,3.354 -59.21556,1.92974 z m -38.52396,-42.79353 c 5.89028,-2.46112 6.44887,-4.85717 6.44887,-27.66267 0,-11.15454 -0.16144,-20.28098 -0.35876,-20.28098 -0.19731,0 -2.75099,0.46411 -5.67482,1.03138 -7.98362,1.54892 -27.02152,1.25238 -33.93692,-0.52862 -9.06744,-2.33524 -18.10014,-7.32519 -24.39973,-13.4792 -4.66919,-4.56128 -6.75635,-7.79017 -11.48308,-17.76468 -6.32307,-13.34312 -12.67872,-22.52125 -18.55225,-26.79105 -2.08646,-1.51678 -5.59122,-4.04279 -7.788353,-5.61338 -4.680388,-3.34569 -7.253648,-7.42219 -5.679127,-8.99672 1.965296,-1.96529 8.40459,-2.75808 14.00026,-1.72366 11.5406,2.1334 20.96448,9.31992 30.16198,23.00112 6.7335,10.01604 11.62315,14.50886 20.28606,18.63969 5.56232,2.65235 7.72684,3.10809 16.28428,3.42867 7.07568,0.26507 11.6727,-0.0993 16.24051,-1.28735 10.29613,-2.67787 11.28327,-3.46101 12.66469,-10.04749 1.48318,-7.07175 6.16876,-16.51813 10.32283,-20.81139 1.70694,-1.76413 2.61643,-3.20751 2.02107,-3.20751 -3.49105,0 -24.83529,-4.24173 -32.36135,-6.43116 -29.26244,-8.5128 -49.57439,-25.73106 -59.69663,-50.60433 -7.79732,-19.1602 -10.90836,-47.64726 -7.4004,-67.76341 2.51273,-14.40906 9.99965,-30.73029 18.0049,-39.25002 l 2.52427,-2.68653 -1.63867,-7.45751 c -1.8487,-8.41342 -2.16792,-25.04982 -0.63654,-33.17353 0.55118,-2.92383 1.94537,-8.31385 3.09821,-11.97782 l 2.09607,-6.66175 h 5.55724 c 10.87974,0 28.69906,6.71281 46.90412,17.6695 l 7.96973,4.79656 10.35773,-2.34891 c 31.10574,-7.05411 61.69179,-7.01257 91.53142,0.12434 l 10.11501,2.41927 6.98498,-4.51857 c 16.01255,-10.35846 36.33585,-18.14219 47.36925,-18.14219 h 5.53909 l 2.8696,9.12907 c 2.67854,8.52122 2.8671,10.18046 2.83188,24.91988 -0.0295,12.35241 -0.39689,16.70656 -1.68725,19.99633 l -1.64951,4.2055 2.7504,3.19645 c 7.85501,9.12882 13.50169,20.16989 17.11172,33.4589 1.92717,7.09419 2.22727,10.53897 2.1784,25.00538 -0.0617,18.2664 -1.53036,28.62915 -6.01443,42.43781 -11.22469,34.56631 -37.06133,53.99776 -82.08122,61.73236 -6.16055,1.0584 -11.65265,1.92438 -12.20468,1.92438 -0.55204,0 0.58315,1.75645 2.52264,3.90323 4.28053,4.73805 7.02685,9.9583 9.22353,17.5323 1.37868,4.75361 1.74819,12.40782 2.21588,45.90146 l 0.56129,40.19651 2.56346,2.56175 c 5.35943,5.35583 11.52938,4.41761 32.53195,-4.94692 C 432.25166,419.61843 484.8314,329.69844 476.22608,235.45329 467.71817,142.27496 401.03297,64.469794 309.98518,41.491193 279.38764,33.769004 244.53828,32.907329 212.98898,39.09289 129.87285,55.388645 61.781576,120.52539 41.684807,202.96404 c -4.619434,18.9493 -6.015641,31.34387 -5.994449,53.2147 0.02228,22.95383 1.497502,34.99368 6.843823,55.85359 17.624778,68.76719 69.758599,126.64315 136.381259,151.40258 8.76716,3.25819 11.79757,3.54315 16.55248,1.55642 z"
       id="path2011" />
  </g>
</svg>
