<?xml version="1.0" encoding="UTF-8" standalone="no"?>
<svg
   xmlns:dc="http://purl.org/dc/elements/1.1/"
   xmlns:cc="http://creativecommons.org/ns#"
   xmlns:rdf="http://www.w3.org/1999/02/22-rdf-syntax-ns#"
   xmlns:svg="http://www.w3.org/2000/svg"
   xmlns="http://www.w3.org/2000/svg"
   xmlns:sodipodi="http://sodipodi.sourceforge.net/DTD/sodipodi-0.dtd"
   xmlns:inkscape="http://www.inkscape.org/namespaces/inkscape"
   viewBox="0 0 448.25 448.15"
   version="1.1"
   id="svg849"
   sodipodi:docname="instagram.svg"
   inkscape:version="1.0.2 (e86c870879, 2021-01-15, custom)">
  <metadata
     id="metadata855">
    <rdf:RDF>
      <cc:Work
         rdf:about="">
        <dc:format>image/svg+xml</dc:format>
        <dc:type
           rdf:resource="http://purl.org/dc/dcmitype/StillImage" />
        <dc:title>instagram</dc:title>
      </cc:Work>
    </rdf:RDF>
  </metadata>
  <defs
     id="defs853" />
  <sodipodi:namedview
     pagecolor="#ffffff"
     bordercolor="#666666"
     borderopacity="1"
     objecttolerance="10"
     gridtolerance="10"
     guidetolerance="10"
     inkscape:pageopacity="0"
     inkscape:pageshadow="2"
     inkscape:window-width="1920"
     inkscape:window-height="997"
     id="namedview851"
     showgrid="false"
     inkscape:zoom="1.4054657"
     inkscape:cx="224.125"
     inkscape:cy="224.075"
     inkscape:window-x="1272"
     inkscape:window-y="-8"
     inkscape:window-maximized="1"
     inkscape:current-layer="svg849" />
  <title
     id="title845">instagram</title>
  <path
     d="M224.1,109.18A114.9,114.9,0,1,0,339,224.07,114.72,114.72,0,0,0,224.1,109.18Zm0,189.6a74.7,74.7,0,1,1,74.7-74.7,74.84,74.84,0,0,1-74.7,74.7Zm146.4-194.3a26.8,26.8,0,1,1-26.8-26.8A26.74,26.74,0,0,1,370.5,104.48Zm76.1,27.2c-1.7-35.9-9.9-67.7-36.2-93.9s-58-34.41-93.9-36.2c-37-2.11-147.9-2.11-184.9,0C95.8,3.28,64,11.47,37.7,37.68s-34.4,58-36.2,93.89c-2.1,37-2.1,147.9,0,184.9,1.7,35.9,9.9,67.71,36.2,93.9s58,34.4,93.9,36.2c37,2.11,147.9,2.11,184.9,0,35.9-1.7,67.7-9.89,93.9-36.2s34.4-58,36.2-93.9c2.1-37,2.1-147.8,0-184.8Zm-47.8,224.5a75.63,75.63,0,0,1-42.6,42.6c-29.5,11.7-99.5,9-132.1,9s-102.7,2.6-132.1-9a75.63,75.63,0,0,1-42.6-42.6c-11.7-29.5-9-99.5-9-132.11s-2.6-102.7,9-132.1A75.63,75.63,0,0,1,92,49.37c29.5-11.7,99.5-9,132.1-9s102.7-2.6,132.1,9A75.63,75.63,0,0,1,398.8,92c11.7,29.5,9,99.5,9,132.1S410.5,326.77,398.8,356.18Z"
     transform="translate(0.07)"
     style="fill:#000000;fill-opacity:1"
     id="path847" />
</svg>
