<?xml version="1.0" encoding="UTF-8" standalone="no"?>
<svg
   xmlns:dc="http://purl.org/dc/elements/1.1/"
   xmlns:cc="http://creativecommons.org/ns#"
   xmlns:rdf="http://www.w3.org/1999/02/22-rdf-syntax-ns#"
   xmlns:svg="http://www.w3.org/2000/svg"
   xmlns="http://www.w3.org/2000/svg"
   xmlns:sodipodi="http://sodipodi.sourceforge.net/DTD/sodipodi-0.dtd"
   xmlns:inkscape="http://www.inkscape.org/namespaces/inkscape"
   width="300"
   height="300"
   viewBox="0 0 79.374999 79.374999"
   version="1.1"
   id="svg8"
   inkscape:version="1.0.2 (e86c870879, 2021-01-15, custom)"
   sodipodi:docname="onlyfans.svg">
  <defs
     id="defs2" />
  <sodipodi:namedview
     id="base"
     pagecolor="#ffffff"
     bordercolor="#666666"
     borderopacity="1.0"
     inkscape:pageopacity="0.0"
     inkscape:pageshadow="2"
     inkscape:zoom="2.2665079"
     inkscape:cx="81.101459"
     inkscape:cy="166.4057"
     inkscape:document-units="mm"
     inkscape:current-layer="g36"
     inkscape:document-rotation="0"
     showgrid="false"
     units="px"
     inkscape:window-width="1920"
     inkscape:window-height="1017"
     inkscape:window-x="-8"
     inkscape:window-y="-8"
     inkscape:window-maximized="1" />
  <metadata
     id="metadata5">
    <rdf:RDF>
      <cc:Work
         rdf:about="">
        <dc:format>image/svg+xml</dc:format>
        <dc:type
           rdf:resource="http://purl.org/dc/dcmitype/StillImage" />
        <dc:title></dc:title>
      </cc:Work>
    </rdf:RDF>
  </metadata>
  <g
     inkscape:label="Ebene 1"
     inkscape:groupmode="layer"
     id="layer1">
    <g
       id="g36"
       transform="translate(0.15942308,5.1665238)">
      <path
         id="path38"
         style="fill:#000000;fill-opacity:1;stroke-width:0.459631"
         d="m 39.771172,-5.1652741 c -2.28048,0.00631 -4.586224,0.2207344 -6.894438,0.6585951 C 15.768594,-1.2613199 3.7395462,10.767116 0.49418704,27.875255 -3.4728517,48.787787 11.104264,69.734815 32.289755,73.564972 48.116669,76.426345 64.040198,69.603211 72.780487,56.214424 78.288953,47.7763 80.343815,37.68657 78.595832,27.662869 75.258256,8.5238127 58.340805,-5.2166561 39.771172,-5.1652741 Z m -0.340927,4.1033645 C 53.48196,-1.0689698 66.842342,7.4374687 72.333671,20.66805 80.99339,41.532402 68.649958,64.889702 46.565227,69.428558 27.439002,73.359385 8.6052382,60.840594 4.6434576,41.563749 0.71228945,22.435854 13.229125,3.604106 32.507655,-0.35802087 c 2.304914,-0.47370695 4.623219,-0.70273323 6.92259,-0.70388873 z m 0.336031,15.3808846 c -5.718968,0.0077 -7.861293,0.778556 -11.426256,4.113158 -2.864478,2.679382 -4.203107,5.721923 -4.534878,10.306764 -0.153709,2.124134 -0.611671,4.212889 -1.166618,5.317729 -1.296317,2.580802 -0.949124,8.713532 0.697154,12.309481 2.1128,4.614958 6.0527,8.01117 10.81234,9.321319 3.014392,0.829765 8.122988,0.815201 11.37729,-0.03245 5.233385,-1.363121 8.966474,-4.659332 11.07125,-9.776707 1.421269,-3.455523 1.541349,-9.806776 0.234425,-12.395782 -0.544584,-1.078813 -0.93676,-3.062452 -1.067464,-5.399755 C 55.42688,22.06247 52.728663,18.127546 47.14119,15.507613 44.898884,14.456203 44.011822,14.313154 39.766276,14.318957 Z m -0.03734,6.20279 c 2.779629,-0.01364 5.508125,0.77526 7.078674,2.19552 1.589701,1.437583 2.611119,4.07521 2.611119,6.743864 v 2.54624 H 39.76627 30.114425 l 0.0025,-1.723608 c 0.0064,-4.289035 2.515067,-8.217679 5.894305,-9.230123 1.180583,-0.35371 2.454288,-0.525695 3.717752,-0.531893 z m -0.0074,17.386662 c 2.304762,-0.05068 4.641382,1.521094 4.641382,4.571603 0,1.660391 -0.249926,2.261512 -1.37901,3.316232 -1.127902,1.053616 -1.379009,1.655702 -1.379009,3.309502 0,1.111993 -0.24813,2.270429 -0.551483,2.573783 -1.527432,1.527433 -3.125878,0.03467 -3.125878,-2.919609 0,-1.23919 -0.382949,-2.13013 -1.429201,-3.321741 -1.243327,-1.416078 -1.396837,-1.872906 -1.177636,-3.507201 0.358108,-2.669877 2.367221,-3.977838 4.400835,-4.022569 z" />
    </g>
  </g>
</svg>
