<?xml version="1.0" encoding="UTF-8" standalone="no"?>
<svg
   xmlns:dc="http://purl.org/dc/elements/1.1/"
   xmlns:cc="http://creativecommons.org/ns#"
   xmlns:rdf="http://www.w3.org/1999/02/22-rdf-syntax-ns#"
   xmlns:svg="http://www.w3.org/2000/svg"
   xmlns="http://www.w3.org/2000/svg"
   xmlns:sodipodi="http://sodipodi.sourceforge.net/DTD/sodipodi-0.dtd"
   xmlns:inkscape="http://www.inkscape.org/namespaces/inkscape"
   width="720px"
   height="720px"
   viewBox="0 0 720 720"
   version="1.1"
   id="SVGRoot"
   sodipodi:docname="reddit.svg"
   inkscape:version="1.0.2 (e86c870879, 2021-01-15, custom)">
  <defs
     id="defs833" />
  <sodipodi:namedview
     id="base"
     pagecolor="#ffffff"
     bordercolor="#666666"
     borderopacity="1.0"
     inkscape:pageopacity="0.0"
     inkscape:pageshadow="2"
     inkscape:zoom="0.49497475"
     inkscape:cx="686.42838"
     inkscape:cy="258.82562"
     inkscape:document-units="px"
     inkscape:current-layer="layer1"
     inkscape:document-rotation="0"
     showgrid="false"
     inkscape:window-width="1920"
     inkscape:window-height="997"
     inkscape:window-x="1272"
     inkscape:window-y="-8"
     inkscape:window-maximized="1" />
  <metadata
     id="metadata836">
    <rdf:RDF>
      <cc:Work
         rdf:about="">
        <dc:format>image/svg+xml</dc:format>
        <dc:type
           rdf:resource="http://purl.org/dc/dcmitype/StillImage" />
        <dc:title></dc:title>
      </cc:Work>
    </rdf:RDF>
  </metadata>
  <g
     inkscape:label="Ebene 1"
     inkscape:groupmode="layer"
     id="layer1">
    <path
       style="fill:#000000;stroke-width:1.33333"
       d="m 319.72416,669.40101 c -19.4927,-1.86556 -39.02832,-5.11017 -57.33334,-9.52232 -18.70482,-4.5085 -45.26921,-12.33304 -51.33333,-15.12021 -2.2,-1.01115 -7,-3.01672 -10.66667,-4.45683 -41.12189,-16.15084 -84.91266,-47.04234 -111.755654,-78.83625 -11.94204,-14.14463 -20.97352,-27.43664 -24.31267,-35.78197 -1.22167,-3.05326 -2.71056,-5.55136 -3.30867,-5.55136 -2.23096,0 -11.91286,-27.95622 -14.56393,-42.05291 -1.51157,-8.03757 -3.34323,-17.17237 -4.07036,-20.29956 -1.66237,-7.14948 -1.73059,-34.62524 -0.0988,-39.78191 0.6728,-2.12609 1.58232,-6.4308 2.02115,-9.56602 0.65577,-4.68518 0.37854,-5.85354 -1.55662,-6.56028 -3.60458,-1.31646 -8.13632,-5.03528 -18.533089,-15.20863 -6.81727,-6.67077 -10.84131,-12.03044 -14.20447,-18.91912 -10.07001968,-20.62617 -9.61687968,-18.79109 -9.61687968,-38.94491 0,-16.26836 0.36436,-19.43754 2.83586968,-24.66666 1.55973,-3.3 3.62413,-8.23303 4.58755,-10.9623 2.59617,-7.35461 13.52721,-21.244 21.540489,-27.37013 14.2842,-10.92027 33.85843,-17.59683 51.72956,-17.64443 12.252866,-0.0327 24.738444,3.82424 44.337834,13.69622 16.11817,8.11852 17.10031,8.43529 19.87504,6.4106 9.46573,-6.90711 35.662,-20.82664 63.09365,-33.52519 12.61999,-5.842 40.33046,-14.04928 72,-21.32496 14.99834,-3.44568 44.10274,-6.60961 60.818,-6.61153 l 14.15134,-0.002 3.64909,-13 c 2.007,-7.15 6.34208,-21.1 9.63351,-31 3.29141,-9.9 9.57432,-29.99044 13.96198,-44.64542 4.38768,-14.65499 8.45383,-27.254993 9.03588,-28.000006 0.58207,-0.745013 2.66258,-7.013627 4.62335,-13.93024 4.64796,-16.39556 7.03039,-21.200687 12.02013,-24.24343 6.02463,-3.673809 12.78242,-3.12546 44.10672,3.578967 15.4,3.296104 43.6,9.262796 62.66667,13.259316 l 34.66667,7.2664 4,-4.321707 c 11.53073,-12.458114 23.24721,-19.089057 37.14464,-21.022012 19.41078,-2.699793 37.18326,2.475688 51.85028,15.099199 7.80496,6.717533 10.17506,9.782333 14.04893,18.166827 13.59737,29.429706 1.28127,65.437486 -27.34876,79.957766 -13.78121,6.9894 -33.3056,8.41973 -49.12607,3.59892 -19.10486,-5.82128 -38.33876,-27.01392 -41.29476,-45.4998 l -0.84574,-5.28898 -36.88094,-7.61107 c -31.60484,-6.52227 -46.29928,-9.678216 -64.39825,-13.830923 -3.50284,-0.803706 -3.5486,-0.709026 -11.11613,22.996443 -4.17934,13.09191 -10.2536,31.78351 -13.49835,41.53689 -6.88959,20.70934 -15.20152,47.8721 -15.20152,49.67735 0,0.69075 3.26927,1.25589 7.26504,1.25589 9.26248,0 37.47457,3.67179 40.46299,5.26624 1.24958,0.66671 7.67197,2.20692 14.27197,3.42268 17.83709,3.28572 51.64648,13.22448 55.85487,16.41936 0.81316,0.61732 5.07846,2.52092 9.47846,4.23024 13.38887,5.20131 48.87799,23.93678 53.26667,28.1206 2.11292,2.0143 4.13056,1.39588 9.55,-2.92712 8.40041,-6.70088 23.06951,-13.32537 33.85,-15.28649 21.07055,-3.83303 35.11099,-1.73363 54.91112,8.2106 38.77007,19.47149 54.54057,66.17423 35.69985,105.72139 -4.08266,8.56962 -7.73048,13.65409 -15.63469,21.79229 -5.67029,5.83813 -12.74997,12.05103 -15.73265,13.80643 l -5.42303,3.19162 1.84404,10.34942 c 3.78173,21.22448 0.11987,59.95957 -7.89517,83.51394 -4.77102,14.02098 -18.38603,39.24759 -28.41655,52.65166 -29.80107,39.82401 -71.12919,70.26778 -126.01959,92.83054 -26.68352,10.96828 -67.28388,21.71686 -96,25.4151 -19.66734,2.53289 -79.83981,3.67562 -98.66666,1.87378 z m 64,-86.52524 c 30.40894,-3.76678 53.71173,-10.95382 73.60005,-22.69969 20.22899,-11.94707 26.39995,-18.89697 26.39995,-29.73237 0,-7.91023 -8.95904,-15.64498 -18.12136,-15.64498 -3.29627,0 -19.06571,8.25216 -24.62324,12.88536 -4.83343,4.02954 -31.15227,13.60982 -47.2554,17.20136 -32.05898,7.15026 -61.8333,4.59699 -95.17683,-8.16178 -8.34725,-3.19404 -17.34725,-7.22927 -20,-8.96716 -23.02339,-15.08336 -24.87381,-15.55408 -35.25757,-8.9689 -7.62484,4.83554 -9.48294,8.8907 -7.48075,16.32626 2.63008,9.76737 13.45251,18.1998 41.99841,32.72358 8.98028,4.56904 36.39556,12.06275 50.29164,13.74674 6.76047,0.81926 14.69176,1.99762 17.6251,2.61858 6.03824,1.27824 21.25917,0.74671 38,-1.327 z M 266.83684,442.76493 c 9.46766,-3.54485 16.10353,-9.39368 23.28189,-20.52062 5.82067,-9.02242 6.11975,-9.96499 6.67584,-21.0397 0.54007,-10.7556 0.28957,-12.21937 -3.46348,-20.23948 -5.08636,-10.8693 -13.10273,-19.63752 -22.71195,-24.84209 -8.81814,-4.77612 -11.47646,-5.41067 -22.69214,-5.41665 -10.305,-0.005 -11.40919,0.32765 -22.62231,6.82558 -9.97332,5.77948 -14.76307,11.12123 -20.01041,22.31652 -3.03155,6.46786 -3.55604,9.3266 -3.4768,18.95024 0.11573,14.05174 4.00297,23.56664 13.49214,33.02487 13.92338,13.87799 32.91391,17.91045 51.52722,10.94133 z m 213.15502,2.53619 c 14.2296,-3.01607 25.84891,-11.91824 33.16279,-25.40781 4.29169,-7.91551 4.56951,-9.19803 4.56951,-21.09458 0,-11.7125 -0.33318,-13.3195 -4.42286,-21.33333 -4.94877,-9.6972 -12.36248,-16.56755 -25.00502,-23.17237 -6.87335,-3.59083 -9.21927,-4.11962 -17.96867,-4.05027 -8.36061,0.0663 -11.38536,0.74041 -17.87779,3.98453 -10.80962,5.40134 -20.73962,14.81235 -25.45264,24.12238 -3.55789,7.0282 -3.93492,9.00994 -3.89048,20.44906 0.0436,11.21535 0.47638,13.48868 3.77743,19.84092 4.21539,8.11172 14.19941,18.70908 20.97096,22.25926 5.09271,2.67 16.01912,5.61478 21.47011,5.78642 1.98057,0.0624 6.78057,-0.56052 10.66666,-1.38421 z"
       id="path1421" />
  </g>
</svg>
