<?xml version="1.0" encoding="UTF-8" standalone="no"?>
<svg
   xmlns:dc="http://purl.org/dc/elements/1.1/"
   xmlns:cc="http://creativecommons.org/ns#"
   xmlns:rdf="http://www.w3.org/1999/02/22-rdf-syntax-ns#"
   xmlns:svg="http://www.w3.org/2000/svg"
   xmlns="http://www.w3.org/2000/svg"
   xmlns:sodipodi="http://sodipodi.sourceforge.net/DTD/sodipodi-0.dtd"
   xmlns:inkscape="http://www.inkscape.org/namespaces/inkscape"
   width="2400px"
   height="2400px"
   viewBox="0 0 2400 2400"
   version="1.1"
   id="SVGRoot"
   sodipodi:docname="steam.svg"
   inkscape:version="1.0.2 (e86c870879, 2021-01-15, custom)">
  <defs
     id="defs833" />
  <sodipodi:namedview
     id="base"
     pagecolor="#ffffff"
     bordercolor="#666666"
     borderopacity="1.0"
     inkscape:pageopacity="0.0"
     inkscape:pageshadow="2"
     inkscape:zoom="0.0875"
     inkscape:cx="88.173596"
     inkscape:cy="-89.307155"
     inkscape:document-units="px"
     inkscape:current-layer="layer1"
     inkscape:document-rotation="0"
     showgrid="false"
     inkscape:window-width="1920"
     inkscape:window-height="997"
     inkscape:window-x="1272"
     inkscape:window-y="-8"
     inkscape:window-maximized="1" />
  <metadata
     id="metadata836">
    <rdf:RDF>
      <cc:Work
         rdf:about="">
        <dc:format>image/svg+xml</dc:format>
        <dc:type
           rdf:resource="http://purl.org/dc/dcmitype/StillImage" />
        <dc:title></dc:title>
      </cc:Work>
    </rdf:RDF>
  </metadata>
  <g
     inkscape:label="Ebene 1"
     inkscape:groupmode="layer"
     id="layer1">
    <path
       style="fill:#000000;stroke-width:0.966435"
       d="m 1150.2668,2261.9305 c -226.0809,-11.1085 -436.39982,-90.0104 -612.71875,-229.8636 -54.10354,-42.9141 -110.6848,-98.3183 -156.54329,-153.287 -69.25287,-83.0107 -127.25827,-180.1526 -168.21764,-281.7153 -12.80572,-31.753 -31.45758,-85.2803 -30.16634,-86.5715 0.24596,-0.246 90.83099,36.8539 201.30007,82.4442 l 200.85271,82.8916 1.76607,7.2482 c 6.77411,27.8029 19.62285,58.4454 35.12075,83.7589 19.34587,31.5982 49.51055,63.8907 79.69806,85.3196 38.02479,26.9921 80.82667,44.1044 129.50203,51.7748 15.79208,2.4885 54.88527,3.0236 72.48247,0.992 68.32304,-7.888 129.87196,-37.5082 177.60336,-85.4716 34.6835,-34.852 60.5162,-79.0159 74.1119,-126.7027 6.858,-24.0542 10.0565,-44.7667 10.8547,-70.2944 l 0.5813,-18.5837 185.9761,-132.9048 185.9761,-132.9046 h 8.8612 c 35.6057,-0.014 77.1388,-5.9026 111.7862,-15.8497 151.4176,-43.4714 264.7026,-172.6183 287.8872,-328.19712 3.242,-21.75498 4.253,-36.11328 4.253,-60.40206 0,-32.80411 -2.6642,-57.60251 -9.5003,-88.42862 -32.5318,-146.69352 -146.5839,-264.93265 -291.8193,-302.5321 -58.7871,-15.2191 -116.2205,-17.2172 -176.3758,-6.13597 -73.2204,13.48802 -144.4096,49.39294 -198.602,100.16682 -51.5659,48.31333 -87.4886,103.65418 -109.2017,168.23172 -12.5795,37.41324 -19.3434,74.91402 -20.4764,113.52535 l -0.604,20.58511 -129.8604,188.64767 -129.86026,188.6475 -19.06358,0.6131 c -35.92714,1.1552 -65.14367,6.7936 -97.82795,18.8791 -12.43702,4.5988 -35.98232,16.0448 -48.18113,23.4221 l -10.00712,6.0519 -284.75494,-117.177 C 268.48383,1183.6612 139.8249,1130.5345 139.19025,1130.0497 c -0.72646,-0.5555 -0.99147,-2.5551 -0.71564,-5.3993 0.24103,-2.4843 1.09516,-12.1278 1.89817,-21.4296 12.41035,-143.76076 56.9202,-289.00028 127.76245,-416.90315 171.2268,-309.14327 483.58124,-513.46614 833.32677,-545.11046 36.2952,-3.28393 51.8663,-3.90723 97.6097,-3.90723 45.7399,0 61.2995,0.62274 97.6098,3.90661 344.9186,31.19425 653.7755,230.33138 826.4749,532.87421 74.7764,130.99641 120.9921,278.0448 134.5693,428.17002 3.2841,36.3102 3.9066,51.8698 3.9066,97.6098 0,55.1366 -1.6858,84.0619 -7.7448,132.8846 -24.819,199.9872 -107.8859,391.5716 -236.749,546.0347 -39.947,47.8827 -89.7056,97.8378 -136.0018,136.5384 -164.8884,137.8363 -366.629,222.3803 -579.2606,242.7524 -41.4075,3.9672 -112.5573,5.7786 -151.6093,3.8598 z M 844.39053,1838.1731 c -73.22491,-9.0674 -137.47829,-53.0469 -172.06113,-117.7709 -2.76129,-5.1678 -4.86135,-9.5476 -4.66672,-9.7326 0.19465,-0.1848 30.14411,12.0239 66.55448,27.1306 36.41037,15.1069 70.54961,28.9572 75.86498,30.7789 28.21395,9.669 59.73397,11.3339 89.37961,4.7208 42.60365,-9.5035 80.08499,-35.4853 103.66705,-71.8606 12.2952,-18.9653 21.0718,-41.6198 24.8976,-64.2677 2.8051,-16.6068 2.3953,-44.7215 -0.8735,-59.919 -4.0421,-18.7917 -12.7184,-40.9056 -21.6132,-55.0866 -11.14368,-17.7662 -29.25726,-36.998 -46.17651,-49.0272 -13.53228,-9.621 -25.61665,-15.1713 -99.75135,-45.8158 -37.07478,-15.3254 -67.40871,-28.1046 -67.40871,-28.3983 0,-0.294 4.24024,-1.909 9.42273,-3.5892 54.18519,-17.5673 108.77127,-15.0061 161.46563,7.5755 54.17951,23.2183 98.39301,68.9829 120.34831,124.5705 23.9372,60.6058 21.1842,127.326 -7.653,185.4786 -22.4989,45.3708 -57.4676,80.3349 -102.93703,102.924 -23.37405,11.6123 -51.76621,19.9478 -77.44183,22.736 -12.41306,1.348 -38.35704,1.1208 -51.01741,-0.447 z m 683.43277,-635.5106 c -52.7392,-3.7947 -104.6396,-24.2748 -147.4011,-58.1651 -11.7725,-9.33 -32.5305,-29.9317 -41.5933,-41.2801 -31.973,-40.0358 -52.2012,-88.0797 -58.1402,-138.08797 -1.8792,-15.82381 -1.8792,-47.21828 0,-63.04208 10.3698,-87.31644 62.6058,-163.96347 140.6802,-206.42313 27.8992,-15.17252 64.1961,-26.39705 98.0754,-30.3289 13.2843,-1.54174 44.0663,-1.53633 57.5027,0.0106 43.328,4.98688 83.8101,19.70778 119.4215,43.42627 17.3418,11.55023 29.9618,22.07169 44.9312,37.46011 13.7232,14.10712 20.9404,23.1076 32.0705,39.99544 22.1199,33.56295 35.6224,69.83445 41.9385,112.65951 2.3763,16.11024 2.3763,53.3328 0,69.44314 -7.2698,49.29061 -23.693,89.27431 -52.626,128.12241 -10.9373,14.6856 -37.6825,41.4307 -52.368,52.368 -53.7702,40.0466 -116.5982,58.5833 -182.4914,53.8422 z m 52.9894,-69.918 c 72.0417,-12.2031 131.6329,-61.2706 156.9113,-129.201 13.3126,-35.77417 15.9603,-77.29764 7.3867,-115.84073 -4.7467,-21.33913 -15.5327,-46.67359 -27.7732,-65.23423 -50.6491,-76.80195 -145.0665,-109.85124 -231.7928,-81.13524 -85.3583,28.26305 -141.452,108.80702 -138.2818,198.55684 0.6293,17.81388 2.2353,29.06172 6.4736,45.33905 14.7878,56.79141 55.9514,105.98081 109.7653,131.16691 17.7541,8.3092 41.9115,15.1776 62.2242,17.6914 10.6529,1.3184 44.204,0.5005 55.0867,-1.343 z"
       id="path1457" />
  </g>
</svg>
