<?xml version="1.0" encoding="utf-8"?>
<!-- Svg Vector Icons : http://www.onlinewebfonts.com/icon -->
<!DOCTYPE svg PUBLIC "-//W3C//DTD SVG 1.1//EN" "http://www.w3.org/Graphics/SVG/1.1/DTD/svg11.dtd">
<svg version="1.1" xmlns="http://www.w3.org/2000/svg" xmlns:xlink="http://www.w3.org/1999/xlink" x="0px" y="0px" viewBox="0 0 1000 1000" enable-background="new 0 0 1000 1000" xml:space="preserve">
<metadata> Svg Vector Icons : http://www.onlinewebfonts.com/icon </metadata>
<g><path d="M220.5,275.7c154.9,78.6,285.8,74,285.8,74S456.7,176,610.1,98.9c153.4-77,258.9,52.9,258.9,52.9s26.8-7.4,46.7-14.8c19.9-7.4,48.8-20.6,48.8-20.6l-47.3,84.8l72.8-7.8c0,0-9,13.2-38.1,40c-29.1,26.8-41.1,40.7-41.1,40.7s10.4,209.1-99.3,370.1c-109.7,161-251.3,257.6-457.1,278c-205.8,20.3-339.9-63.5-339.9-63.5s90-5.2,147.4-27.2c57.4-22,139.9-80.1,139.9-80.1s-117.3-36.3-159.4-77c-42.1-40.8-52.6-65-52.6-65l115.8-1.5c0,0-121.8-65-156.4-116.3C14.5,440.4,10,390.5,10,390.5l89,36.1c0,0-74-101.1-84.5-179.6C4,168.4,28,126.1,28,126.1S65.6,197.1,220.5,275.7z"/></g>
</svg>